<mxfile host="app.diagrams.net" modified="2023-05-24T23:07:14.274Z" agent="Mozilla/5.0 (Windows NT 10.0; Win64; x64) AppleWebKit/537.36 (KHTML, like Gecko) Chrome/113.0.0.0 Safari/537.36" etag="_f4MUWfxpbkamtbqhd9O" version="21.3.3" type="google">
  <diagram name="Página-1" id="7DL9BhxIZtwMBMVs23m5">
    <mxGraphModel grid="1" page="1" gridSize="10" guides="1" tooltips="1" connect="1" arrows="1" fold="1" pageScale="1" pageWidth="827" pageHeight="1169" math="0" shadow="0">
      <root>
        <mxCell id="0" />
        <mxCell id="1" parent="0" />
        <mxCell id="mWOX5Vqq1cp7af0no1Na-1" value="Sistema de gestión de un Kiosco" style="rounded=0;whiteSpace=wrap;html=1;" vertex="1" parent="1">
          <mxGeometry x="354" y="310" width="120" height="60" as="geometry" />
        </mxCell>
        <mxCell id="mWOX5Vqq1cp7af0no1Na-2" value="Kioskero" style="rounded=0;whiteSpace=wrap;html=1;" vertex="1" parent="1">
          <mxGeometry x="94" y="250" width="120" height="60" as="geometry" />
        </mxCell>
        <mxCell id="mWOX5Vqq1cp7af0no1Na-3" value="Base de datos" style="rounded=0;whiteSpace=wrap;html=1;" vertex="1" parent="1">
          <mxGeometry x="614" y="250" width="120" height="60" as="geometry" />
        </mxCell>
        <mxCell id="mWOX5Vqq1cp7af0no1Na-4" value="Empleado" style="rounded=0;whiteSpace=wrap;html=1;" vertex="1" parent="1">
          <mxGeometry x="94" y="370" width="120" height="60" as="geometry" />
        </mxCell>
        <mxCell id="mWOX5Vqq1cp7af0no1Na-5" value="" style="endArrow=classic;html=1;rounded=0;exitX=1;exitY=0.25;exitDx=0;exitDy=0;entryX=0;entryY=0;entryDx=0;entryDy=0;" edge="1" parent="1" source="mWOX5Vqq1cp7af0no1Na-2" target="mWOX5Vqq1cp7af0no1Na-1">
          <mxGeometry width="50" height="50" relative="1" as="geometry">
            <mxPoint x="440" y="520" as="sourcePoint" />
            <mxPoint x="490" y="470" as="targetPoint" />
            <Array as="points">
              <mxPoint x="354" y="265" />
            </Array>
          </mxGeometry>
        </mxCell>
        <mxCell id="mWOX5Vqq1cp7af0no1Na-6" value="Ingresar productos" style="text;html=1;strokeColor=none;fillColor=none;align=center;verticalAlign=middle;whiteSpace=wrap;rounded=0;" vertex="1" parent="1">
          <mxGeometry x="230" y="240" width="130" height="30" as="geometry" />
        </mxCell>
        <mxCell id="mWOX5Vqq1cp7af0no1Na-7" value="" style="endArrow=classic;html=1;rounded=0;exitX=1;exitY=0.5;exitDx=0;exitDy=0;entryX=0;entryY=0.25;entryDx=0;entryDy=0;" edge="1" parent="1" source="mWOX5Vqq1cp7af0no1Na-2" target="mWOX5Vqq1cp7af0no1Na-1">
          <mxGeometry width="50" height="50" relative="1" as="geometry">
            <mxPoint x="440" y="520" as="sourcePoint" />
            <mxPoint x="490" y="470" as="targetPoint" />
            <Array as="points">
              <mxPoint x="330" y="280" />
              <mxPoint x="330" y="325" />
            </Array>
          </mxGeometry>
        </mxCell>
        <mxCell id="mWOX5Vqq1cp7af0no1Na-8" value="Ingresar precio" style="text;html=1;strokeColor=none;fillColor=none;align=center;verticalAlign=middle;whiteSpace=wrap;rounded=0;" vertex="1" parent="1">
          <mxGeometry x="220" y="280" width="110" height="30" as="geometry" />
        </mxCell>
        <mxCell id="mWOX5Vqq1cp7af0no1Na-9" value="" style="endArrow=classic;html=1;rounded=0;exitX=1;exitY=1;exitDx=0;exitDy=0;entryX=0;entryY=0.75;entryDx=0;entryDy=0;" edge="1" parent="1" source="mWOX5Vqq1cp7af0no1Na-2" target="mWOX5Vqq1cp7af0no1Na-1">
          <mxGeometry width="50" height="50" relative="1" as="geometry">
            <mxPoint x="440" y="520" as="sourcePoint" />
            <mxPoint x="490" y="470" as="targetPoint" />
            <Array as="points">
              <mxPoint x="310" y="310" />
              <mxPoint x="310" y="355" />
            </Array>
          </mxGeometry>
        </mxCell>
        <mxCell id="mWOX5Vqq1cp7af0no1Na-10" value="Ingre cant pro" style="text;html=1;strokeColor=none;fillColor=none;align=center;verticalAlign=middle;whiteSpace=wrap;rounded=0;" vertex="1" parent="1">
          <mxGeometry x="214" y="310" width="94" height="30" as="geometry" />
        </mxCell>
        <mxCell id="mWOX5Vqq1cp7af0no1Na-11" value="" style="endArrow=classic;html=1;rounded=0;exitX=0.5;exitY=0;exitDx=0;exitDy=0;entryX=0.5;entryY=0;entryDx=0;entryDy=0;" edge="1" parent="1" source="mWOX5Vqq1cp7af0no1Na-1" target="mWOX5Vqq1cp7af0no1Na-3">
          <mxGeometry width="50" height="50" relative="1" as="geometry">
            <mxPoint x="430" y="430" as="sourcePoint" />
            <mxPoint x="480" y="380" as="targetPoint" />
            <Array as="points">
              <mxPoint x="414" y="200" />
              <mxPoint x="674" y="200" />
            </Array>
          </mxGeometry>
        </mxCell>
        <mxCell id="mWOX5Vqq1cp7af0no1Na-12" value="Ingresar ventas" style="text;html=1;strokeColor=none;fillColor=none;align=center;verticalAlign=middle;whiteSpace=wrap;rounded=0;" vertex="1" parent="1">
          <mxGeometry x="490" y="180" width="100" height="30" as="geometry" />
        </mxCell>
        <mxCell id="mWOX5Vqq1cp7af0no1Na-13" value="" style="endArrow=classic;html=1;rounded=0;entryX=0.25;entryY=0;entryDx=0;entryDy=0;exitX=0.75;exitY=0;exitDx=0;exitDy=0;" edge="1" parent="1" source="mWOX5Vqq1cp7af0no1Na-1" target="mWOX5Vqq1cp7af0no1Na-3">
          <mxGeometry width="50" height="50" relative="1" as="geometry">
            <mxPoint x="430" y="430" as="sourcePoint" />
            <mxPoint x="480" y="380" as="targetPoint" />
            <Array as="points">
              <mxPoint x="444" y="230" />
              <mxPoint x="644" y="230" />
            </Array>
          </mxGeometry>
        </mxCell>
        <mxCell id="mWOX5Vqq1cp7af0no1Na-14" value="Buscar valor producto" style="text;html=1;strokeColor=none;fillColor=none;align=center;verticalAlign=middle;whiteSpace=wrap;rounded=0;" vertex="1" parent="1">
          <mxGeometry x="490" y="210" width="130" height="30" as="geometry" />
        </mxCell>
        <mxCell id="mWOX5Vqq1cp7af0no1Na-16" value="" style="endArrow=classic;html=1;rounded=0;exitX=0.867;exitY=1.05;exitDx=0;exitDy=0;exitPerimeter=0;entryX=0.3;entryY=1;entryDx=0;entryDy=0;entryPerimeter=0;" edge="1" parent="1" source="mWOX5Vqq1cp7af0no1Na-4" target="mWOX5Vqq1cp7af0no1Na-1">
          <mxGeometry width="50" height="50" relative="1" as="geometry">
            <mxPoint x="525" y="570" as="sourcePoint" />
            <mxPoint x="575" y="520" as="targetPoint" />
            <Array as="points">
              <mxPoint x="200" y="440" />
              <mxPoint x="390" y="440" />
            </Array>
          </mxGeometry>
        </mxCell>
        <mxCell id="mWOX5Vqq1cp7af0no1Na-17" value="" style="endArrow=classic;html=1;rounded=0;entryX=0;entryY=0;entryDx=0;entryDy=0;" edge="1" parent="1" target="mWOX5Vqq1cp7af0no1Na-3">
          <mxGeometry width="50" height="50" relative="1" as="geometry">
            <mxPoint x="474" y="310" as="sourcePoint" />
            <mxPoint x="524" y="260" as="targetPoint" />
            <Array as="points">
              <mxPoint x="474" y="250" />
            </Array>
          </mxGeometry>
        </mxCell>
        <mxCell id="mWOX5Vqq1cp7af0no1Na-18" value="Actualizar stock" style="text;html=1;strokeColor=none;fillColor=none;align=center;verticalAlign=middle;whiteSpace=wrap;rounded=0;" vertex="1" parent="1">
          <mxGeometry x="480" y="230" width="90" height="30" as="geometry" />
        </mxCell>
        <mxCell id="mWOX5Vqq1cp7af0no1Na-19" value="" style="endArrow=classic;html=1;rounded=0;entryX=0;entryY=0.5;entryDx=0;entryDy=0;" edge="1" parent="1" target="mWOX5Vqq1cp7af0no1Na-3">
          <mxGeometry width="50" height="50" relative="1" as="geometry">
            <mxPoint x="474" y="320" as="sourcePoint" />
            <mxPoint x="524" y="270" as="targetPoint" />
            <Array as="points">
              <mxPoint x="520" y="320" />
              <mxPoint x="520" y="280" />
            </Array>
          </mxGeometry>
        </mxCell>
        <mxCell id="mWOX5Vqq1cp7af0no1Na-20" value="Recibir productos" style="text;html=1;strokeColor=none;fillColor=none;align=center;verticalAlign=middle;whiteSpace=wrap;rounded=0;" vertex="1" parent="1">
          <mxGeometry x="505" y="260" width="100" height="30" as="geometry" />
        </mxCell>
        <mxCell id="mWOX5Vqq1cp7af0no1Na-21" value="" style="endArrow=classic;html=1;rounded=0;exitX=1;exitY=0.5;exitDx=0;exitDy=0;entryX=0;entryY=0.75;entryDx=0;entryDy=0;" edge="1" parent="1" source="mWOX5Vqq1cp7af0no1Na-1" target="mWOX5Vqq1cp7af0no1Na-3">
          <mxGeometry width="50" height="50" relative="1" as="geometry">
            <mxPoint x="520" y="390" as="sourcePoint" />
            <mxPoint x="570" y="340" as="targetPoint" />
            <Array as="points">
              <mxPoint x="580" y="340" />
              <mxPoint x="580" y="295" />
            </Array>
          </mxGeometry>
        </mxCell>
        <mxCell id="mWOX5Vqq1cp7af0no1Na-22" value="Registrar precios" style="text;html=1;strokeColor=none;fillColor=none;align=center;verticalAlign=middle;whiteSpace=wrap;rounded=0;" vertex="1" parent="1">
          <mxGeometry x="470" y="320" width="110" height="30" as="geometry" />
        </mxCell>
        <mxCell id="mWOX5Vqq1cp7af0no1Na-23" value="" style="endArrow=classic;html=1;rounded=0;entryX=0.133;entryY=1;entryDx=0;entryDy=0;entryPerimeter=0;exitX=1;exitY=1;exitDx=0;exitDy=0;" edge="1" parent="1" source="mWOX5Vqq1cp7af0no1Na-1" target="mWOX5Vqq1cp7af0no1Na-3">
          <mxGeometry width="50" height="50" relative="1" as="geometry">
            <mxPoint x="530" y="410" as="sourcePoint" />
            <mxPoint x="580" y="360" as="targetPoint" />
            <Array as="points">
              <mxPoint x="630" y="370" />
            </Array>
          </mxGeometry>
        </mxCell>
        <mxCell id="mWOX5Vqq1cp7af0no1Na-24" value="Entregar lista de productos" style="text;html=1;strokeColor=none;fillColor=none;align=center;verticalAlign=middle;whiteSpace=wrap;rounded=0;" vertex="1" parent="1">
          <mxGeometry x="470" y="350" width="160" height="30" as="geometry" />
        </mxCell>
        <mxCell id="mWOX5Vqq1cp7af0no1Na-25" value="" style="endArrow=classic;html=1;rounded=0;entryX=0.5;entryY=1;entryDx=0;entryDy=0;exitX=0.9;exitY=1.017;exitDx=0;exitDy=0;exitPerimeter=0;" edge="1" parent="1" source="mWOX5Vqq1cp7af0no1Na-1" target="mWOX5Vqq1cp7af0no1Na-3">
          <mxGeometry width="50" height="50" relative="1" as="geometry">
            <mxPoint x="460" y="390" as="sourcePoint" />
            <mxPoint x="640" y="400" as="targetPoint" />
            <Array as="points">
              <mxPoint x="462" y="390" />
              <mxPoint x="674" y="390" />
            </Array>
          </mxGeometry>
        </mxCell>
        <mxCell id="mWOX5Vqq1cp7af0no1Na-26" value="Entregar valor de productos" style="text;html=1;strokeColor=none;fillColor=none;align=center;verticalAlign=middle;whiteSpace=wrap;rounded=0;" vertex="1" parent="1">
          <mxGeometry x="470" y="370" width="170" height="30" as="geometry" />
        </mxCell>
        <mxCell id="mWOX5Vqq1cp7af0no1Na-27" value="" style="endArrow=classic;html=1;rounded=0;entryX=0.817;entryY=0.983;entryDx=0;entryDy=0;entryPerimeter=0;exitX=0.808;exitY=1.083;exitDx=0;exitDy=0;exitPerimeter=0;" edge="1" parent="1" source="mWOX5Vqq1cp7af0no1Na-1" target="mWOX5Vqq1cp7af0no1Na-3">
          <mxGeometry width="50" height="50" relative="1" as="geometry">
            <mxPoint x="535" y="580" as="sourcePoint" />
            <mxPoint x="585" y="530" as="targetPoint" />
            <Array as="points">
              <mxPoint x="451" y="410" />
              <mxPoint x="710" y="410" />
            </Array>
          </mxGeometry>
        </mxCell>
        <mxCell id="mWOX5Vqq1cp7af0no1Na-28" value="Informar ventas" style="text;html=1;strokeColor=none;fillColor=none;align=center;verticalAlign=middle;whiteSpace=wrap;rounded=0;" vertex="1" parent="1">
          <mxGeometry x="509" y="390" width="96" height="30" as="geometry" />
        </mxCell>
        <mxCell id="mWOX5Vqq1cp7af0no1Na-30" value="Escanear producto" style="text;html=1;strokeColor=none;fillColor=none;align=center;verticalAlign=middle;whiteSpace=wrap;rounded=0;" vertex="1" parent="1">
          <mxGeometry x="240" y="370" width="136" height="30" as="geometry" />
        </mxCell>
        <mxCell id="mWOX5Vqq1cp7af0no1Na-31" value="" style="endArrow=classic;html=1;rounded=0;entryX=0;entryY=1;entryDx=0;entryDy=0;exitX=0.5;exitY=0;exitDx=0;exitDy=0;" edge="1" parent="1" source="mWOX5Vqq1cp7af0no1Na-4" target="mWOX5Vqq1cp7af0no1Na-1">
          <mxGeometry width="50" height="50" relative="1" as="geometry">
            <mxPoint x="280" y="440" as="sourcePoint" />
            <mxPoint x="330" y="390" as="targetPoint" />
            <Array as="points">
              <mxPoint x="154" y="350" />
              <mxPoint x="280" y="350" />
              <mxPoint x="280" y="370" />
            </Array>
          </mxGeometry>
        </mxCell>
        <mxCell id="mWOX5Vqq1cp7af0no1Na-32" value="Generar un pedido" style="text;html=1;strokeColor=none;fillColor=none;align=center;verticalAlign=middle;whiteSpace=wrap;rounded=0;" vertex="1" parent="1">
          <mxGeometry x="154" y="350" width="116" height="30" as="geometry" />
        </mxCell>
        <mxCell id="mWOX5Vqq1cp7af0no1Na-33" value="" style="endArrow=classic;html=1;rounded=0;entryX=0.092;entryY=1.05;entryDx=0;entryDy=0;entryPerimeter=0;exitX=1;exitY=0.25;exitDx=0;exitDy=0;" edge="1" parent="1" source="mWOX5Vqq1cp7af0no1Na-4" target="mWOX5Vqq1cp7af0no1Na-1">
          <mxGeometry width="50" height="50" relative="1" as="geometry">
            <mxPoint x="250" y="480" as="sourcePoint" />
            <mxPoint x="300" y="430" as="targetPoint" />
            <Array as="points">
              <mxPoint x="260" y="385" />
              <mxPoint x="260" y="400" />
              <mxPoint x="365" y="400" />
            </Array>
          </mxGeometry>
        </mxCell>
        <mxCell id="mWOX5Vqq1cp7af0no1Na-34" value="" style="endArrow=classic;html=1;rounded=0;entryX=0.25;entryY=0;entryDx=0;entryDy=0;exitX=0.25;exitY=1;exitDx=0;exitDy=0;" edge="1" parent="1" source="mWOX5Vqq1cp7af0no1Na-2" target="mWOX5Vqq1cp7af0no1Na-4">
          <mxGeometry width="50" height="50" relative="1" as="geometry">
            <mxPoint x="535" y="580" as="sourcePoint" />
            <mxPoint x="585" y="530" as="targetPoint" />
          </mxGeometry>
        </mxCell>
        <mxCell id="mWOX5Vqq1cp7af0no1Na-35" value="Mostrar estado pedido" style="text;html=1;strokeColor=none;fillColor=none;align=center;verticalAlign=middle;whiteSpace=wrap;rounded=0;" vertex="1" parent="1">
          <mxGeometry x="178" y="490" width="130" height="30" as="geometry" />
        </mxCell>
        <mxCell id="mWOX5Vqq1cp7af0no1Na-36" value="Terminar pedido" style="text;html=1;strokeColor=none;fillColor=none;align=center;verticalAlign=middle;whiteSpace=wrap;rounded=0;" vertex="1" parent="1">
          <mxGeometry x="230" y="390" width="92" height="30" as="geometry" />
        </mxCell>
        <mxCell id="mWOX5Vqq1cp7af0no1Na-37" value="Consultar producto" style="text;html=1;strokeColor=none;fillColor=none;align=center;verticalAlign=middle;whiteSpace=wrap;rounded=0;" vertex="1" parent="1">
          <mxGeometry x="214" y="420" width="110" height="30" as="geometry" />
        </mxCell>
        <mxCell id="mWOX5Vqq1cp7af0no1Na-38" value="Recibir ticket" style="text;html=1;strokeColor=none;fillColor=none;align=center;verticalAlign=middle;whiteSpace=wrap;rounded=0;" vertex="1" parent="1">
          <mxGeometry x="188" y="440" width="120" height="30" as="geometry" />
        </mxCell>
        <mxCell id="mWOX5Vqq1cp7af0no1Na-39" value="Solicitar caja" style="text;html=1;strokeColor=none;fillColor=none;align=center;verticalAlign=middle;whiteSpace=wrap;rounded=0;" vertex="1" parent="1">
          <mxGeometry x="188" y="460" width="95" height="30" as="geometry" />
        </mxCell>
        <mxCell id="mWOX5Vqq1cp7af0no1Na-41" value="" style="endArrow=classic;html=1;rounded=0;exitX=1;exitY=0.75;exitDx=0;exitDy=0;entryX=0.192;entryY=1.067;entryDx=0;entryDy=0;entryPerimeter=0;" edge="1" parent="1" source="mWOX5Vqq1cp7af0no1Na-4" target="mWOX5Vqq1cp7af0no1Na-1">
          <mxGeometry width="50" height="50" relative="1" as="geometry">
            <mxPoint x="291.5" y="470" as="sourcePoint" />
            <mxPoint x="440" y="415" as="targetPoint" />
            <Array as="points">
              <mxPoint x="377" y="415" />
            </Array>
          </mxGeometry>
        </mxCell>
        <mxCell id="mWOX5Vqq1cp7af0no1Na-42" value="" style="endArrow=classic;html=1;rounded=0;exitX=0.5;exitY=1;exitDx=0;exitDy=0;entryX=0.642;entryY=1.083;entryDx=0;entryDy=0;entryPerimeter=0;" edge="1" parent="1" source="mWOX5Vqq1cp7af0no1Na-4" target="mWOX5Vqq1cp7af0no1Na-1">
          <mxGeometry width="50" height="50" relative="1" as="geometry">
            <mxPoint x="440" y="590" as="sourcePoint" />
            <mxPoint x="490" y="540" as="targetPoint" />
            <Array as="points">
              <mxPoint x="154" y="510" />
              <mxPoint x="430" y="510" />
            </Array>
          </mxGeometry>
        </mxCell>
        <mxCell id="mWOX5Vqq1cp7af0no1Na-43" value="" style="endArrow=classic;html=1;rounded=0;exitX=0.617;exitY=1.033;exitDx=0;exitDy=0;exitPerimeter=0;entryX=0.5;entryY=1;entryDx=0;entryDy=0;" edge="1" parent="1" source="mWOX5Vqq1cp7af0no1Na-4" target="mWOX5Vqq1cp7af0no1Na-1">
          <mxGeometry width="50" height="50" relative="1" as="geometry">
            <mxPoint x="260" y="610" as="sourcePoint" />
            <mxPoint x="310" y="560" as="targetPoint" />
            <Array as="points">
              <mxPoint x="170" y="480" />
              <mxPoint x="414" y="480" />
            </Array>
          </mxGeometry>
        </mxCell>
        <mxCell id="mWOX5Vqq1cp7af0no1Na-44" value="" style="endArrow=classic;html=1;rounded=0;exitX=0.75;exitY=1;exitDx=0;exitDy=0;entryX=0.367;entryY=1.017;entryDx=0;entryDy=0;entryPerimeter=0;" edge="1" parent="1" source="mWOX5Vqq1cp7af0no1Na-4" target="mWOX5Vqq1cp7af0no1Na-1">
          <mxGeometry width="50" height="50" relative="1" as="geometry">
            <mxPoint x="270" y="620" as="sourcePoint" />
            <mxPoint x="410" y="460" as="targetPoint" />
            <Array as="points">
              <mxPoint x="184" y="460" />
              <mxPoint x="400" y="460" />
            </Array>
          </mxGeometry>
        </mxCell>
      </root>
    </mxGraphModel>
  </diagram>
</mxfile>
